<svg width="40" height="40" viewBox="0 0 40 40" fill="none" xmlns="http://www.w3.org/2000/svg">
<rect width="40" height="40" rx="8" fill="#0D0D0D"/>
<path d="M19.7754 6.60662C22.5532 10.1331 24.0361 14.4818 23.9823 18.9442V20.0094L24.8988 20.5671C26.0829 21.2839 26.9661 22.3958 27.3873 23.7C27.0175 23.4277 26.6306 23.1787 26.229 22.9544L23.785 21.5821L23.3458 24.3517C23.3078 24.5964 23.2568 24.839 23.1931 25.0785H16.3449C16.2431 24.7652 16.1603 24.4519 16.084 24.1261L15.5302 21.6197L13.2772 22.8729C12.9008 23.0834 12.5374 23.3157 12.1889 23.5684C12.6183 22.2793 13.483 21.1737 14.6392 20.4355L15.5112 19.8778V18.8878C15.5269 14.4436 17.0276 10.1279 19.7817 6.60662H19.7754ZM19.7817 4C19.6389 4.00035 19.501 4.05153 19.3935 4.14412L19.3362 4.19424C15.6662 8.23529 13.6282 13.4608 13.6082 18.8815C12.0508 19.8763 10.898 21.3782 10.3512 23.1249C9.80442 24.8715 9.89845 26.7517 10.6169 28.437C11.3737 26.7915 12.6388 25.4232 14.2319 24.5271C14.3917 25.2085 14.6044 25.8767 14.8683 26.5259C14.9018 26.6507 14.976 26.7613 15.0795 26.8405C15.183 26.9198 15.31 26.9633 15.4411 26.9646H24.2751C24.4533 26.9646 24.6315 26.7954 24.7206 26.5322C24.9781 25.915 25.1577 25.2689 25.2552 24.6086C26.8513 25.5009 28.1175 26.8703 28.8702 28.5185C29.632 26.8415 29.7499 24.9494 29.2022 23.1933C28.6544 21.4372 27.4781 19.9363 25.8916 18.9693C25.9546 13.5165 23.9274 8.24076 20.2145 4.19424C20.1592 4.13338 20.0916 4.08464 20.0159 4.05118C19.9403 4.01772 19.8583 4.00028 19.7754 4H19.7817Z" fill="#4EA8DE"/>
<path d="M19.7754 18.3615C19.2866 18.3614 18.8086 18.2189 18.4019 17.9519C17.9952 17.6849 17.6779 17.3054 17.49 16.8611C17.302 16.4168 17.2519 15.9277 17.3459 15.4554C17.4399 14.9831 17.6738 14.5487 18.0181 14.2071C18.3625 13.8655 18.8018 13.6319 19.2808 13.5357C19.7598 13.4396 20.257 13.4852 20.7097 13.6668C21.1624 13.8484 21.5504 14.1579 21.8247 14.5562C22.099 14.9546 22.2474 15.424 22.2512 15.9052V15.9052C22.2588 16.2171 22.2039 16.5274 22.0897 16.8184C21.9754 17.1094 21.8041 17.3754 21.5854 17.6011C21.3667 17.8269 21.105 18.0081 20.8152 18.1342C20.5253 18.2604 20.2131 18.3291 19.8963 18.3364C19.8563 18.3427 19.8155 18.3427 19.7754 18.3364V18.3615Z" fill="#4EA8DE"/>
<path d="M23.2186 28.5248C23.0593 28.5198 22.9007 28.5461 22.7519 28.6023C22.6032 28.6584 22.4673 28.7433 22.3523 28.8518C22.2373 28.9604 22.1454 29.0905 22.0822 29.2345C22.0189 29.3784 21.9855 29.5334 21.9839 29.6902V33.3871C21.9839 33.7095 22.114 34.0187 22.3455 34.2467C22.5771 34.4746 22.8911 34.6027 23.2186 34.6027C23.5461 34.6027 23.8601 34.4746 24.0917 34.2467C24.3232 34.0187 24.4533 33.7095 24.4533 33.3871V29.7404C24.4584 29.5841 24.4318 29.4284 24.3752 29.2824C24.3185 29.1363 24.2329 29.0028 24.1233 28.8897C24.0137 28.7765 23.8824 28.686 23.7369 28.6233C23.5914 28.5607 23.4347 28.5272 23.2759 28.5248H23.2186Z" fill="#5E60CE"/>
<path d="M16.3449 28.5248C16.183 28.5163 16.0209 28.5401 15.8685 28.5945C15.716 28.649 15.5763 28.7331 15.4575 28.8418C15.3388 28.9506 15.2434 29.0817 15.1772 29.2275C15.111 29.3732 15.0752 29.5306 15.072 29.6902V33.3871C15.072 33.7095 15.2021 34.0187 15.4337 34.2467C15.6652 34.4746 15.9793 34.6027 16.3067 34.6027C16.6342 34.6027 16.9483 34.4746 17.1798 34.2467C17.4114 34.0187 17.5414 33.7095 17.5414 33.3871V29.7404C17.5465 29.5841 17.52 29.4284 17.4633 29.2823C17.4067 29.1363 17.321 29.0028 17.2115 28.8897C17.1019 28.7765 16.9705 28.686 16.825 28.6233C16.6795 28.5607 16.5228 28.5272 16.364 28.5248H16.3449Z" fill="#5E60CE"/>
<path d="M19.6862 28.5248C19.5274 28.5214 19.3695 28.549 19.2215 28.6057C19.0735 28.6625 18.9383 28.7474 18.8236 28.8557C18.709 28.9639 18.6171 29.0933 18.5533 29.2365C18.4894 29.3797 18.4548 29.5339 18.4515 29.6902V34.7844C18.4515 35.1068 18.5816 35.416 18.8132 35.644C19.0447 35.8719 19.3588 36 19.6862 36C20.0137 36 20.3278 35.8719 20.5593 35.644C20.7909 35.416 20.921 35.1068 20.921 34.7844V29.7717C20.926 29.6154 20.8995 29.4597 20.8428 29.3137C20.7862 29.1676 20.7006 29.0341 20.591 28.921C20.4814 28.8079 20.35 28.7173 20.2045 28.6547C20.059 28.592 19.9023 28.5585 19.7435 28.5561L19.6862 28.5248Z" fill="#5E60CE"/>
</svg>
