<svg width="10" height="10" viewBox="0 0 10 10" fill="none" xmlns="http://www.w3.org/2000/svg">
<path d="M9.08162 3.1442L4.08162 8.1442C4.03808 8.1879 3.98633 8.22257 3.92935 8.24623C3.87237 8.26989 3.81129 8.28207 3.74959 8.28207C3.6879 8.28207 3.62681 8.26989 3.56983 8.24623C3.51286 8.22257 3.46111 8.1879 3.41756 8.1442L1.23006 5.9567C1.18646 5.91309 1.15187 5.86133 1.12827 5.80436C1.10467 5.74739 1.09253 5.68633 1.09253 5.62467C1.09253 5.563 1.10467 5.50194 1.12827 5.44497C1.15187 5.388 1.18646 5.33624 1.23006 5.29264C1.27366 5.24903 1.32543 5.21444 1.3824 5.19085C1.43937 5.16725 1.50043 5.1551 1.56209 5.1551C1.62376 5.1551 1.68482 5.16725 1.74179 5.19085C1.79876 5.21444 1.85052 5.24903 1.89412 5.29264L3.74998 7.14849L8.41834 2.48092C8.5064 2.39286 8.62584 2.34338 8.75037 2.34338C8.87491 2.34338 8.99434 2.39286 9.0824 2.48092C9.17046 2.56898 9.21994 2.68841 9.21994 2.81295C9.21994 2.93748 9.17046 3.05692 9.0824 3.14498L9.08162 3.1442Z" fill="#F2F2F2"/>
</svg>
